<?xml version="1.0" encoding="UTF-8" standalone="no"?>
<svg
   xmlns:dc="http://purl.org/dc/elements/1.1/"
   xmlns:cc="http://creativecommons.org/ns#"
   xmlns:rdf="http://www.w3.org/1999/02/22-rdf-syntax-ns#"
   xmlns:svg="http://www.w3.org/2000/svg"
   xmlns="http://www.w3.org/2000/svg"
   xmlns:sodipodi="http://sodipodi.sourceforge.net/DTD/sodipodi-0.dtd"
   xmlns:inkscape="http://www.inkscape.org/namespaces/inkscape"
   id="LOGOMARCA_Vertical_P_x26_B"
   viewBox="-86.3 1456.3 237.5 207.5"
   version="1.1"
   inkscape:version="0.91 r13725"
   sodipodi:docname="codeminer.svg">
  <metadata
     id="metadata17">
    <rdf:RDF>
      <cc:Work
         rdf:about="">
        <dc:format>image/svg+xml</dc:format>
        <dc:type
           rdf:resource="http://purl.org/dc/dcmitype/StillImage" />
      </cc:Work>
    </rdf:RDF>
  </metadata>
  <defs
     id="defs15" />
  <sodipodi:namedview
     pagecolor="#ffffff"
     bordercolor="#666666"
     borderopacity="1"
     objecttolerance="10"
     gridtolerance="10"
     guidetolerance="10"
     inkscape:pageopacity="0"
     inkscape:pageshadow="2"
     inkscape:window-width="1366"
     inkscape:window-height="741"
     id="namedview13"
     showgrid="false"
     inkscape:zoom="1.1373494"
     inkscape:cx="118.75"
     inkscape:cy="103.75"
     inkscape:window-x="0"
     inkscape:window-y="27"
     inkscape:window-maximized="1"
     inkscape:current-layer="LOGOMARCA_Vertical_P_x26_B" />
  <style
     id="style3">.st0{fill:#fff}.st1{fill:none;stroke:#fff;stroke-width:7.4409;stroke-miterlimit:10}</style>
  <path
     class="st0"
     d="M-86.3 1653v-14.1c0-3.7 1-6.4 3-8.2 2-1.7 4.6-2.6 7.8-2.6 3.3 0 5.9.8 8 2.4 2 1.6 3 3.7 3 6.3 0 1-.2 1.7-.6 2.1s-1 .6-2 .6c-1.7 0-2.5-.6-2.6-1.7-.2-3.5-2.1-5.2-5.7-5.2-3.9 0-5.8 2.1-5.8 6.2v14.1c0 4.2 2 6.2 5.9 6.2 1.2 0 2.1-.2 2.9-.5.8-.3 1.3-.8 1.7-1.5.3-.6.6-1.2.7-1.7s.2-1.1.3-1.8c.1-1.1.9-1.7 2.5-1.7.9 0 1.6.2 2 .6s.6 1.1.6 2.1c0 2.7-1 4.9-3 6.5-2 1.7-4.7 2.5-8 2.5-3.2 0-5.8-.9-7.7-2.6-2.1-1.5-3-4.3-3-8zM-60.2 1653v-14.1c0-3.7 1-6.4 3-8.2 2-1.7 4.6-2.6 7.9-2.6s5.9.9 7.9 2.6c2 1.7 3 4.5 3 8.2v14.1c0 3.7-1 6.4-3 8.2-2 1.7-4.6 2.6-7.9 2.6s-5.9-.9-7.9-2.6c-2-1.7-3-4.5-3-8.2zm5.2 0c0 4.2 1.9 6.2 5.7 6.2 1.8 0 3.3-.5 4.3-1.5s1.5-2.6 1.5-4.7v-14.1c0-2.1-.5-3.7-1.5-4.7s-2.4-1.5-4.3-1.5c-3.8 0-5.7 2.1-5.7 6.2v14.1zM-32.4 1661.9v-32.1c0-.5.2-.8.7-1.2.4-.3 1-.5 1.6-.5h8.6c3.3 0 5.9.9 7.9 2.6 2 1.7 3 4.5 3 8.2v13.8c0 3.7-1 6.4-3 8.2-2 1.7-4.6 2.6-7.9 2.6h-8.6c-.6 0-1.2-.2-1.6-.5-.5-.3-.7-.7-.7-1.1zm5.1-2.9h5.7c3.8 0 5.8-2.1 5.8-6.2V1639c0-4.2-1.9-6.2-5.8-6.2h-5.7v26.2zM-4.7 1661.8v-32c0-.5.2-.9.7-1.2.5-.3 1-.5 1.6-.5h17.2c.5 0 1 .2 1.3.7.3.4.4 1 .4 1.5 0 .6-.2 1.2-.5 1.6-.3.5-.7.7-1.2.7H.4v11.1h7.5c.5 0 .9.2 1.2.6.3.4.5.9.5 1.5 0 .5-.1 1-.4 1.4s-.7.6-1.3.6H.4v11.1h14.4c.5 0 .9.2 1.2.7.3.5.5 1 .5 1.6 0 .6-.1 1.1-.4 1.5-.3.5-.7.7-1.3.7H-2.4c-.6 0-1.1-.2-1.6-.5-.5-.1-.7-.6-.7-1.1zM30.3 1661.8v-31.1c0-.9.2-1.5.7-1.9s1.1-.6 1.8-.6c.9 0 1.7.2 2.3.6s1.2 1.2 1.8 2.3l6.8 12.8 6.9-12.8c.6-1.1 1.2-1.9 1.7-2.3.6-.4 1.3-.6 2.3-.6.7 0 1.4.2 1.8.6.5.4.7 1.1.7 1.9v31.1c0 .5-.2.9-.8 1.2-.5.3-1.1.5-1.8.5s-1.3-.2-1.8-.5-.8-.7-.8-1.2v-23.2l-6.5 12c-.5.8-1.1 1.2-1.9 1.2-.8 0-1.4-.4-1.7-1.2l-6.5-12.3v23.5c0 .5-.2.9-.8 1.2-.5.3-1.1.5-1.8.5s-1.3-.2-1.8-.5c-.4-.2-.6-.7-.6-1.2zM63.5 1661.8v-32c0-.5.2-1 .8-1.2.5-.3 1.1-.4 1.8-.4s1.3.1 1.8.4c.5.3.7.7.7 1.2v32c0 .5-.2.9-.7 1.2-.5.3-1.1.5-1.8.5s-1.3-.2-1.8-.5c-.5-.2-.8-.7-.8-1.2zM75 1661.8v-32c0-1.1.9-1.7 2.6-1.7.9 0 1.6.2 2.2.6.6.4 1.1 1.2 1.7 2.3l10.7 21v-22.2c0-.5.2-1 .8-1.2.5-.3 1.1-.4 1.8-.4s1.3.1 1.8.4c.5.3.8.7.8 1.2v32c0 .5-.3.9-.8 1.2-.5.3-1.1.5-1.8.5-1.4 0-2.4-.6-3-1.9l-11.6-22v22.2c0 .5-.2.9-.8 1.2-.5.3-1.1.5-1.8.5s-1.3-.2-1.8-.5c-.5-.2-.8-.7-.8-1.2zM103.7 1661.8v-32c0-.5.2-.9.7-1.2.5-.3 1-.5 1.6-.5h17.2c.5 0 1 .2 1.3.7.3.4.4 1 .4 1.5 0 .6-.2 1.2-.5 1.6-.3.5-.7.7-1.2.7h-14.4v11.1h7.5c.5 0 .9.2 1.2.6.3.4.5.9.5 1.5 0 .5-.1 1-.4 1.4-.3.4-.7.6-1.3.6h-7.5v11.1h14.4c.5 0 .9.2 1.2.7s.5 1 .5 1.6c0 .6-.1 1.1-.4 1.5-.3.5-.7.7-1.3.7H106c-.6 0-1.1-.2-1.6-.5-.4-.1-.7-.6-.7-1.1zM129 1661.8v-32c0-.5.2-.8.5-1.2.3-.3.7-.5 1.2-.5h9.2c7.4 0 11.1 3.3 11.1 9.9 0 2.7-.6 4.9-1.8 6.4-1.2 1.6-2.9 2.6-5 3.1l6.8 12.8c.1.2.2.5.2.7 0 .6-.3 1.2-1 1.8s-1.4.8-2.1.8c-.8 0-1.5-.5-2-1.5l-7.1-13.9h-4.9v13.5c0 .5-.3.9-.8 1.2s-1.1.5-1.8.5-1.3-.2-1.8-.5c-.4-.1-.7-.6-.7-1.1zm5.1-17.6h5.8c4 0 6-1.9 6-5.8 0-3.8-2-5.8-6-5.8h-5.8v11.6z"
     id="path5"
     style="fill:#000000" />
  <path
     id="SVGID_1_"
     class="st0"
     d="m -64.7,1603.6 -21.6,-13.4 82.8,-133.9 82.7,133.9 -21.6,13.3 -61.1,-99 z"
     inkscape:connector-curvature="0"
     style="fill:#000000" />
  <path
     id="SVGID_3_"
     class="st0"
     d="m 41.4,1500.1 27.1,-43.8 82.7,133.9 -21.6,13.3 -61.1,-99 -12.2,19.7 z"
     inkscape:connector-curvature="0"
     style="fill:#000000" />
  <path
     style="color:#000000;font-style:normal;font-variant:normal;font-weight:normal;font-stretch:normal;font-size:medium;line-height:normal;font-family:sans-serif;text-indent:0;text-align:start;text-decoration:none;text-decoration-line:none;text-decoration-style:solid;text-decoration-color:#000000;letter-spacing:normal;word-spacing:normal;text-transform:none;direction:ltr;block-progression:tb;writing-mode:lr-tb;baseline-shift:baseline;text-anchor:start;white-space:normal;clip-rule:nonzero;display:inline;overflow:visible;visibility:visible;opacity:1;isolation:auto;mix-blend-mode:normal;color-interpolation:sRGB;color-interpolation-filters:linearRGB;solid-color:#000000;solid-opacity:1;fill:#000000;fill-opacity:1;fill-rule:nonzero;stroke:none;stroke-width:7.44089985;stroke-linecap:butt;stroke-linejoin:miter;stroke-miterlimit:10;stroke-dasharray:none;stroke-dashoffset:0;stroke-opacity:1;color-rendering:auto;image-rendering:auto;shape-rendering:auto;text-rendering:auto;enable-background:accumulate"
     d="m 133.5,1456.3789 c -9.6234,0 -17.51953,7.8981 -17.51953,17.5215 0,9.5908 7.82241,17.5195 17.51953,17.5195 9.6234,0 17.51953,-7.8961 17.51953,-17.5195 0,-9.6234 -7.89613,-17.5215 -17.51953,-17.5215 z m 0,7.4414 c 5.5766,0 10.08008,4.5035 10.08008,10.0801 0,5.5766 -4.50348,10.0801 -10.08008,10.0801 -5.70288,0 -10.08008,-4.4709 -10.08008,-10.0801 0,-5.5766 4.50348,-10.0801 10.08008,-10.0801 z"
     id="path11"
     inkscape:connector-curvature="0" />
</svg>
