<?xml version="1.0" encoding="UTF-8" standalone="no"?>
<!--part of the matt icon theme by sixsixfive released under CC0 (https://creativecommons.org/publicdomain/zero/1.0/) on openclipart-->
<svg xmlns="http://www.w3.org/2000/svg" xmlns:xlink="http://www.w3.org/1999/xlink" viewBox="0 0 128 128">
 <defs id="0">
  <linearGradient id="2">
   <stop id="7" stop-opacity="0.323"/>
   <stop offset="1" id="8" stop-color="#fff" stop-opacity="0"/>
  </linearGradient>
  <linearGradient id="3">
   <stop id="9"/>
   <stop id="A" offset="1" stop-opacity="0"/>
  </linearGradient>
  <radialGradient xlink:href="#3" id="4" gradientUnits="userSpaceOnUse" gradientTransform="matrix(1,0,0,0.24256,0,382.773)" cx="303.39" cy="505.35" r="204.47"/>
  <radialGradient xlink:href="#2" id="5" gradientUnits="userSpaceOnUse" gradientTransform="matrix(1.7143246,-0.97267972,0.54592521,0.70725354,-482.42002,431.90292)" cx="310.32" cy="516.31" r="225.72"/>
 </defs>
 <g id="1" transform="translate(0,-924.36218)">
  <g id="6" transform="translate(-1.6238997,2.3931241)">
   <g id="B">
    <g id="C">
     <path d="m 78.965904,1015.0482 c 20.426,14.9955 31.695496,13.9244 34.043346,9.2116 2.3478,-4.7129 -8.45216,-4.9272 -8.21737,-11.568 0.23479,-6.6409 15.96516,-10.4968 15.96516,-10.4968" id="D" fill="none" stroke="#9c0f0f" stroke-width="4.198"/>
     <path d="m 102.0159,501.77423 c 8.47187,-25.93398 105.49877,-45.35616 216.71563,-43.38066 111.21687,1.97551 194.50814,24.60061 186.03627,50.53459 -8.47188,25.93398 -105.49877,45.35616 -216.71564,43.38066 C 177.0994,550.33801 93.886535,527.81087 101.9655,501.932" id="E" transform="matrix(0.2719656,0,0,0.13604495,-17.316716,959.06764)" opacity="0.375" fill="url(#4)"/>
     <path transform="matrix(0.19533888,0,0,0.22783965,-4.9399739,913.88531)" id="F" d="M 106.3663,289.25091 C 115.83466,183.83323 224.27408,104.88502 348.57253,112.91515 472.87099,120.94527 565.95917,212.91289 556.49082,318.33057 547.02246,423.74825 438.58304,502.69646 314.28458,494.66633 190.2813,486.65528 97.280746,395.0859 106.30998,289.89224" fill="url(#5)"/>
     <path d="M 106.3663,289.25091 C 115.83466,183.83323 224.27408,104.88502 348.57253,112.91515 472.87099,120.94527 565.95917,212.91289 556.49082,318.33057 547.02246,423.74825 438.58304,502.69646 314.28458,494.66633 190.2813,486.65528 97.280746,395.0859 106.30998,289.89224" id="G" transform="matrix(0.19533888,0,0,0.22783965,-4.9399739,913.88531)" fill="#bf0303" stroke="#9c0f0f" stroke-linecap="round" stroke-width="16.789"/>
     <path d="M 23.516265,966.47521 C 10.830669,962.23706 4.7227861,941.85368 4.7227861,941.85368 c 0,0 13.6252659,12.10893 22.0823499,12.91621 8.457067,0.80726 -3.05395,11.70532 -3.288871,11.70532 z" id="H" fill="#323232" fill-rule="evenodd" stroke="#323232" stroke-width="1.035"/>
     <path d="m 98.531779,965.25503 c 12.685601,-4.23815 18.793481,-24.62155 18.793481,-24.62155 0,0 -13.62526,12.10895 -22.082356,12.91621 -8.457067,0.80728 3.053953,11.70534 3.288875,11.70534 z" id="I" fill="#323232" fill-rule="evenodd" stroke="#323232" stroke-width="1.035"/>
     <path d="m 109.8357,1002.2472 c 17.32648,-6.29151 16.78516,-4.00642 16.78516,-4.00642 l -11.07779,12.24332 c 0,0 0.27709,-2.9561 -1.46881,-5.3829 -1.74592,-2.4267 -4.48782,-2.8967 -4.23856,-2.854 z" id="J" fill="#bf0303" fill-rule="evenodd" stroke="#9c0f0f" stroke-width="0.84"/>
     <path id="K" d="m 41.603786,962.37613 c -2.95389,2.03457 -5.03719,6.99854 -5.03719,12.8174 0,7.62629 3.57647,13.81486 8.00464,13.81486 4.42817,0 8.02958,-6.18857 8.02958,-13.81486 0,-0.40983 -0.0295,-0.8211 -0.0499,-1.22189 l -10.94713,-11.59551 z" fill="#323232"/>
     <path id="L" d="m 76.589811,959.95728 -12.418425,11.74513 c 0.0623,7.53414 3.64021,13.61537 8.029585,13.61537 4.42817,0 8.02958,-6.18858 8.02958,-13.81486 0,-4.83706 -1.45111,-9.08487 -3.64074,-11.54564 z" fill="#323232"/>
     <path d="m 89.458936,999.93096 c -23.614912,9.50794 -26.728848,17.27414 -28.144633,17.01174 -8.816839,-1.6346 -6.841297,3.776 -33.405774,-17.15472 -4.263236,-3.3591 16.856918,6.20992 31.985627,6.20992 15.128696,0 35.854608,-8.59936 29.56478,-6.06694 z" id="M" fill="#ddd" fill-rule="evenodd" stroke="#323232" stroke-width="1.379"/>
     <path transform="matrix(0.75502224,0.24197615,-0.25335938,1.1837584,26.264986,895.26827)" d="m 84.793885,53.833614 c 0,2.247858 -2.075339,4.070107 -4.6354,4.070107 -2.56006,0 -4.635399,-1.822249 -4.635399,-4.070107 0,-2.247857 2.075339,-4.070106 4.635399,-4.070106 2.560061,0 4.6354,1.822249 4.6354,4.070106 z" id="N" fill="#ddd"/>
     <path id="O" d="m 84.793885,53.833614 c 0,2.247858 -2.075339,4.070107 -4.6354,4.070107 -2.56006,0 -4.635399,-1.822249 -4.635399,-4.070107 0,-2.247857 2.075339,-4.070106 4.635399,-4.070106 2.560061,0 4.6354,1.822249 4.6354,4.070106 z" transform="matrix(0.75502224,0.24197615,-0.25335938,1.1837584,-1.9996445,899.11226)" fill="#ddd"/>
    </g>
   </g>
  </g>
 </g>
</svg>
