<?xml version="1.0" encoding="utf-8"?>
<!-- Generator: Adobe Illustrator 18.0.0, SVG Export Plug-In . SVG Version: 6.00 Build 0)  -->
<!DOCTYPE svg PUBLIC "-//W3C//DTD SVG 1.1//EN" "http://www.w3.org/Graphics/SVG/1.1/DTD/svg11.dtd">
<svg version="1.1" id="Layer_1" xmlns="http://www.w3.org/2000/svg" xmlns:xlink="http://www.w3.org/1999/xlink" x="0px" y="0px"
	 viewBox="0 291.9 612 208.1" enable-background="new 0 291.9 612 208.1" xml:space="preserve">
<path fill="#602340" d="M607.8,492.5v-37.4l-12.8,6v-21.5h-2v-7.9h-1.4v-10.2h-24.9v18.4v3.1h-0.3h-0.9h-0.8v1.7h0.8v1.4h-0.8v1.7
	h0.8v1.4h-0.8v1.7h0.8v1.4h-0.8v1.7h0.8v1.1H563v23.2h-2.3h-0.6v-1.1h0.6v-1.4h-0.6v-1.1h0.6v-1.4h-0.6v-1.1h0.6v-1.4h-0.6v-1.1h0.6
	v-1.4h-0.6v-1.1h0.6v-1.4h-0.6v-1.1h0.6v-1.4h-0.6v-1.4h0.6v-1.4h-0.6v-1.1h0.6V458h-0.6v-1.1h0.6v-1.4h-0.6v-1.1h0.6v-1.5h-0.6
	v-1.1h0.6v-1.4h-0.6v-1.1h0.6v-0.4h-0.6v-1.1h0.6v-1.4h-0.6v-1.1h0.6v-1.4h-0.6v-1.1h0.6v-1.4h-0.6v-0.8h0.6v-1.4h-0.6v-1.1h0.6
	v-1.4h-0.6v-1.1h0.6v-1.7h-0.6v-1.1h0.6v-1.4h-0.6v-1.1h0.6v-1.4h-0.6v-1.1h0.6v-1.4h-0.6v-1.7h0.6v-8.5h-0.6h-1.4h-6.2l-7.7,4v-7.6
	H540v-5.7h-0.6v-2H538v-1.7l0,0l-7.9-9.1h-4.8h-4.8l-7.9,9.1l0,0v1.7h-1.4v2h-0.6v5.7h-4.8v19H503v5.9h-2.5v-5.9h-2.8v-19h-4.8v-5.7
	h-0.6v-2h-1.4v-1.7l0,0l-7.9-9.1h-5h-4.8l-7.9,9.1l0,0v1.7h-1.4v2h-0.6v5.7h-4.8v19h-2.8v5.9v18.7v15.6h-8.8v-2H446v-0.9h0.9v-2H446
	v-1h0.9v-2H446V463h0.9v-2H446v-0.9h0.9v-2H446v-0.9h0.9v-2H446v-0.9h0.9v-2H446v-0.9h0.9v-2H446v-0.5h0.9v-2H446V446h0.9v-2H446
	v-0.9h0.9v-2H446v-0.9h0.9v-2H446v-0.9h0.9v-2H446v-0.8h0.9v-2H446v-0.6h0.9v-2H446V429h0.9v-2H446v-0.8h0.9v-2H446v-0.9h0.9v-2H446
	v-0.9h0.9v-2H446v-0.8h0.9v-2H446v-0.7h0.9v-2H446V412h0.9v-2H446v-0.8h0.9v-2H446v-0.9h0.9v-2H446v-0.9h0.9v-2H446v-0.8h0.9v-2H446
	h-1.4h-3.1v-4H406v4h-5.4v38.8c-9.4,0-18.1,3.7-24.6,9.4v-1.1h-0.6v-3.1h0.6V442h-0.6h-0.3l-2-4.8l0,0v-7.6h0.6V429h-0.6l0,0l0,0
	c0-4.5-2-8.2-4.8-9.4v-5.4h0.6l-2.5-7.6v-4.2h1.4v-0.5h-1.4v-2.5h-0.9v2.5h-1.4v0.6h1.4v4.2l-2.5,7.6h0.6v5.4
	c-2.8,1.4-4.8,5.1-4.8,9.4l0,0l0,0h-0.6v0.9h0.6v7.6l0,0l-2,4.8h-0.3h-0.6v0.6h0.6v3.1h-0.6v13.3h-4.5v-79.3h-7.1v-12.8h-1.4v-8.2
	h-2.5v-7.4h-1.7v-11.6h-1.1v-2.5h-0.9v-0.9c0-0.9-0.6-1.7-1.4-2v-3.1H333v-4.8h-6.2c0-0.8-0.9-1.7-1.7-2v-6.2h-0.9v-1.1h-2v-2.8
	h-0.9v2.8h-2v1.1h-0.9v5.7c-0.9,0.3-1.7,0.9-1.7,2h-6.2v4.8h-2.3v3.1c-0.9,0.3-1.4,1.1-1.4,2v0.9H306v2.5h-1.1v11.6h-1.7v7.4h-2.5
	v8.2h-1.4v12.8h-7.1v71.1h-4.8v-23.5H284v-17.3h-18v-21.2h-1.1v-3.1h-1.1l-2-4.5h-0.3v-1.4h-0.6v-2.8H260v-1.4h-0.6v-4.2h0.6v-0.9
	h-0.3v-0.3h-3.4v0.3H256v0.9h0.6v4.2H256v1.4h-0.9v2.6H255v1.4h-0.3l-2,4.5h-1.1v3.1h-4v46.2h-2.8v22.7h-1.7V342.9h-4v-8.2h-2.6
	v-9.4h-3.4v-0.9c0-0.6-0.3-1.1-0.6-1.4c0.3-21.5-15.9-30-15.9-30l0,0h-0.3l0,0c-0.3,0-4.2,2.3-7.9,6.8c-3.7,4.2-7.6,11.9-7.4,23
	c-0.3,0.3-0.6,0.8-0.6,1.4v0.9H197v9.3h-2.6v8.2h-4v117.9H187v-49.9h-4c0.6-2.6,1.7-1.7,1.4-4.5c0,0-2.6,0-4.5,0
	c0.6-2.6,1.7-1.7,1.4-4.5c0,0-2.6,0-4.5,0c0.6-2.6,1.7-1.7,1.4-4.5c0,0-2.6,0-4.5,0c0.6-2.6,1.7-1.7,1.4-4.5c0,0-2.6,0-4.5,0
	c0.6-2.5,1.7-1.7,1.4-4.5c0,0-2.3,0-4.2,0v-7.6H142v89.2h-1.4v-36.8h-4.2v-59.5h-3.7v-4.2h-2v-1.4h-1.1v1.4H125v-7.4l0,0
	c-0.3-1.1-4.8-2-10.8-2s-10.5,0.9-10.8,2l0,0v7.4h-5.7v-1.4h-1.1v1.4h-0.8v4.2h-3.7v59.5h-4.5v24.6h-5.7l-5.4,5.9v1.1l0,0v1.4
	l-3.4-3.7v-3.7H72v2.6l-4-4.2l-5.1,5.7v-5.7l0,0l-2.3-11.3l-1.7,7.6L49,442.9v-2h-2.5v2l-9.9,10.2l-1.7-7.6l-2.3,11.3l0,0v5.7
	l-4.8-5.1l-3.7,4v-18.1v-1.1V438h-0.9v-2.3h0.6c0-0.3-0.3-0.6-0.6-0.6h-0.6c-0.3,0-0.6,0.3-0.6,0.6h0.6v2.3h-0.9v4.2H21v-1.7h-1.1
	v1.4h-1.4v-1.4h-1.1v1.4h-0.8v-4.2h-0.9v-2.3h0.6c0-0.3-0.3-0.6-0.6-0.6H15c-0.3,0-0.6,0.3-0.6,0.6H15v2.3h-0.9v4.2H13v-1.1h-0.6
	l-1.7-2h-0.3h-0.3l-1.7,2H8.2v1.1H7.4v-4.2H6.5v-2.3h0.6c0-0.3-0.3-0.6-0.6-0.6H5.9c-0.3,0-0.6,0.3-0.6,0.6h0.6v2.3H5.1v5.4h0.3
	v49.6H0.3v8.4H612v-8.4h-4.2V492.5z M259.5,375.5h-1.1v-4.2h1.1V375.5z M257.3,371.3h1.1v4.2h-1.1V371.3z M212.8,315.7
	c0.3-0.3,0.3-0.6,0.6-0.8c1.1-1.4,2.3-2.3,2.8-2.6c0.6,0.3,2.3,1.4,3.4,3.4c-0.3,0-0.3,0-0.6,0h-5.9
	C213.4,315.5,213.1,315.7,212.8,315.7z M216.8,310.9L216.8,310.9h-0.6l0,0c-0.3,0-4.2,2.3-5.9,7.4h-0.9c1.4-6.5,5.9-9.6,7.1-10.5
	c1.1,0.9,5.7,4,7.1,10.5h-0.9C221,313.2,217,310.9,216.8,310.9z M225,318.3c-1.7-8.2-7.9-11.9-8.2-11.9h-0.3h-0.3l0,0
	c0,0-2.3,1.1-4.5,3.7c-1.4,1.7-3.1,4.2-3.7,7.9h-0.9c1.4-9.1,7.6-13.6,9.1-14.4c0.9,0.6,2.8,1.7,4.8,4.2c2.3,2.8,4,6.2,4.5,10.2H225
	V318.3z M226.9,318.3c-1.7-11.1-10.2-15.6-10.2-15.6h-0.3h-0.3l0,0c0,0-2.8,1.4-5.4,4.8c-2,2.3-4,5.9-4.8,11.1H205
	c1.1-12.2,9.6-17.9,11.3-19c1.7,0.9,10.2,6.5,11.3,19h-0.9v-0.3H226.9z M216.5,294.5c2,1.1,14.7,9.4,14.4,28.1h-1.4v-3.1
	c0-0.3,0-0.6-0.3-0.8c-1.1-14.5-12.2-20.4-12.2-20.4h-0.3h-0.3l0,0c0,0-3.4,1.7-6.5,5.7c-2.6,3.1-5.4,7.9-5.9,15
	c-0.3,0.3-0.3,0.6-0.3,0.9v3.1h-1.4C201.7,303.8,214.5,295.6,216.5,294.5z"/>
</svg>
